# xmcd
#
# Track frame offsets:
#	150
#	13428
#	29106
#	44333
#	60536
#	81314
#	96843
#	114547
#	134277
#	147780
#	165033
#	181461
#	200515
#	217243
#	233072
#	250100
#	269453
#	287231
#
# Disc length: 4054 seconds
#
# Revision: 1
# Processed by: cddbd v1.5.2PL0 Copyright (c) Steve Scherf et al.
# Submitted via: audiograbber 1.83.01
#
DISCID=100fd412
DTITLE=Various Artist - Promo Only Country Radio 2010 - 01
DYEAR=2010
DGENRE=Country
TTITLE0=Randy Houser - Whistlin' Dixie
TTITLE1=Chris Young - The Man I Want To Be
TTITLE2=Bridgette Tatum - (I Like My) Cowboys Dirty
TTITLE3=Lee Brice - Love Like Crazy
TTITLE4=Brad Paisley - American Saturday Night (Album Version)
TTITLE5=Clay Walker - She Won't Be Lonely Long
TTITLE6=Keith Urban - 'til Summer Comes Around
TTITLE7=Carrie Underwood - Temporary Home
TTITLE8=The Band Perry - Hip To My Heart
TTITLE9=Zac Brown Band - Highway 20 Ride
TTITLE10=Jonathan Singleton and the Grove - Look Who's Back In Love
TTITLE11=Lee Ann Womack - There Is A God
TTITLE12=Matt Kennon - The Call
TTITLE13=Lorrie Morgan - Leavin' On Your Mind
TTITLE14=Montgomery Gentry - Oughta Be More Songs About
TTITLE15=Mallary Hope - Love Lives On
TTITLE16=Steve Azar - Sunshine
TTITLE17=Darren Kozelsky - Real Superman
EXTD=
EXTT0=
EXTT1=
EXTT2=
EXTT3=
EXTT4=
EXTT5=
EXTT6=
EXTT7=
EXTT8=
EXTT9=
EXTT10=
EXTT11=
EXTT12=
EXTT13=
EXTT14=
EXTT15=
EXTT16=
EXTT17=
PLAYORDER=
